<svg xmlns="http://www.w3.org/2000/svg" xmlns:xlink="http://www.w3.org/1999/xlink" preserveAspectRatio="xMidYMid" width="28" height="24" viewBox="0 0 28 24">
  <defs>
    <style>
      .cls-1 {
        fill: #fff;
        fill-rule: evenodd;
      }
    </style>
  </defs>
  <path d="M27.790,5.750 L23.000,16.000 C22.636,16.826 21.924,18.000 21.000,18.000 L6.000,18.000 C4.733,18.000 4.000,16.330 4.000,15.000 L4.000,3.000 L1.812,0.880 C-3.018,0.229 3.120,-0.718 4.618,0.880 L6.489,2.890 L26.129,2.890 C27.396,2.890 28.000,3.412 28.000,4.742 C28.000,5.102 27.925,5.443 27.790,5.750 ZM6.000,16.000 L21.000,16.000 L24.000,10.000 L6.000,10.000 L6.000,16.000 ZM26.000,5.000 L6.000,5.000 L6.000,8.000 L25.000,8.000 L26.000,6.000 L26.000,5.000 ZM7.500,19.000 C8.881,19.000 10.000,20.119 10.000,21.500 C10.000,22.881 8.881,24.000 7.500,24.000 C6.119,24.000 5.000,22.881 5.000,21.500 C5.000,20.119 6.119,19.000 7.500,19.000 ZM19.500,19.000 C20.881,19.000 22.000,20.119 22.000,21.500 C22.000,22.881 20.881,24.000 19.500,24.000 C18.119,24.000 17.000,22.881 17.000,21.500 C17.000,20.119 18.119,19.000 19.500,19.000 Z" class="cls-1"/>
</svg>
