<?xml version="1.0" encoding="utf-8"?>
<!DOCTYPE svg PUBLIC "-//W3C//DTD SVG 1.1//EN" "http://www.w3.org/Graphics/SVG/1.1/DTD/svg11.dtd">
<svg version="1.1" id="图形" xmlns="http://www.w3.org/2000/svg" xmlns:xlink="http://www.w3.org/1999/xlink" x="0px" y="0px" width="25px" height="25px" viewBox="0 0 1024 1024" enable-background="new 0 0 1024 1024" xml:space="preserve">
  <path fill="#fff" d="M971.042133 504.8l-717.312 0L195.822933 743.733333 34.901333 743.733333l0-34.133333 134.075733 0 166.417067-686.4384c-35.4816-10.325333-61.559467-42.734933-61.559467-81.5616 0-47.104 38.1952-85.333333 85.333333-85.333333s85.333333 38.229333 85.333333 85.333333c0 19.3024-6.656 36.932267-17.442133 51.2l239.684267 0c-10.8032-14.267733-17.425067-31.8976-17.425067-51.2 0-47.104 38.178133-85.333333 85.316267-85.333333 47.1552 0 85.3504 38.229333 85.3504 85.333333 0 47.172267-38.1952 85.333333-85.333333 85.333333l0 0-365.056 0-16.554667 68.266667 479.163733 0L971.042133 504.8zM410.368-58.417067c0-28.228267-22.971733-51.2-51.2-51.2s-51.2 22.971733-51.2 51.2 22.971733 51.2 51.2 51.2S410.368-30.1888 410.368-58.417067zM785.834667-58.417067c0-28.228267-22.971733-51.2-51.217067-51.2-28.2112 0-51.182933 22.971733-51.182933 51.2s22.971733 51.2 51.182933 51.2C762.862933-7.217067 785.834667-30.1888 785.834667-58.417067zM344.763733 129.316267l-82.756267 341.333333 661.435733 0-115.712-341.333333L344.763733 129.316267z" transform="translate(0, 812) scale(1, -1)"/>
</svg>
