<svg xmlns="http://www.w3.org/2000/svg" xmlns:xlink="http://www.w3.org/1999/xlink" preserveAspectRatio="xMidYMid" width="19.999" height="19.999" viewBox="0 0 39 39">
  <defs>
    <style>
      .cls-1 {
        fill: #0c82d9;
        fill-rule: evenodd;
      }
    </style>
  </defs>
  <path d="M38.976,36.302 C38.985,36.381 39.001,36.459 39.001,36.540 C39.002,37.041 38.847,37.505 38.583,37.889 C38.153,38.558 37.412,39.002 36.568,39.004 C36.384,39.004 36.206,38.979 36.034,38.940 L3.023,38.930 C2.843,38.974 2.657,39.004 2.464,39.004 C1.621,39.006 0.883,38.565 0.455,37.900 C0.176,37.509 0.009,37.035 0.008,36.521 C0.008,36.346 0.029,36.176 0.064,36.011 L0.075,2.947 C0.034,2.774 0.008,2.595 0.008,2.411 C0.006,1.223 0.879,0.244 2.026,0.051 C2.174,0.022 2.326,0.004 2.483,0.003 C2.507,0.003 2.529,0.010 2.552,0.010 L36.418,0.021 C36.475,0.017 36.529,0.004 36.587,0.003 C37.453,0.002 38.205,0.469 38.627,1.165 C38.860,1.534 39.000,1.964 39.001,2.430 C39.001,2.479 38.990,2.526 38.987,2.574 L38.976,36.302 ZM4.882,4.820 L4.873,34.122 L34.169,34.131 L34.178,4.829 L4.882,4.820 ZM17.753,27.405 C17.715,27.457 17.695,27.518 17.649,27.565 C17.363,27.853 16.988,27.989 16.614,27.982 C16.240,27.989 15.864,27.853 15.579,27.565 C15.533,27.518 15.514,27.457 15.475,27.406 L8.402,20.275 C7.845,19.712 7.845,18.799 8.402,18.236 C8.959,17.673 9.861,17.673 10.418,18.236 L16.613,24.482 L28.567,12.416 C29.124,11.853 30.027,11.853 30.584,12.416 C31.141,12.979 31.141,13.892 30.584,14.454 L17.753,27.405 Z" class="cls-1"/>
</svg>
