<svg xmlns="http://www.w3.org/2000/svg" xmlns:xlink="http://www.w3.org/1999/xlink" preserveAspectRatio="xMidYMid" width="19.999" height="19.999" viewBox="0 0 38 38">
  <defs>
    <style>
      .cls-1 {
        fill: #ccc;
        fill-rule: evenodd;
      }
    </style>
  </defs>
  <path d="M37.987,2.508 L37.977,35.371 C37.985,35.449 38.001,35.524 38.001,35.603 C38.002,36.091 37.851,36.543 37.594,36.918 C37.175,37.569 36.453,38.002 35.630,38.004 C35.451,38.004 35.278,37.980 35.110,37.941 L2.946,37.932 C2.770,37.975 2.589,38.004 2.401,38.004 C1.579,38.005 0.860,37.576 0.443,36.928 C0.171,36.547 0.009,36.085 0.008,35.585 C0.007,35.414 0.028,35.248 0.063,35.088 L0.073,2.871 C0.033,2.702 0.008,2.529 0.008,2.349 C0.005,1.197 0.849,0.245 1.959,0.051 C2.108,0.021 2.262,0.004 2.419,0.003 C2.443,0.003 2.464,0.010 2.488,0.010 L35.484,0.021 C35.539,0.016 35.593,0.003 35.649,0.003 C36.494,0.002 37.228,0.459 37.638,1.139 C37.864,1.497 38.000,1.916 38.001,2.367 C38.001,2.416 37.990,2.460 37.987,2.508 ZM33.293,33.256 L33.302,4.705 L4.757,4.696 L4.748,33.247 L33.293,33.256 Z" class="cls-1"/>
</svg>
