<svg xmlns="http://www.w3.org/2000/svg" xmlns:xlink="http://www.w3.org/1999/xlink" preserveAspectRatio="xMidYMid" width="20" height="20" viewBox="0 0 25 25">
  <defs>
    <style>
      .cls-1 {
        fill: #fff;
        filter: url(#color-overlay-1);
        fill-rule: evenodd;
      }
    </style>

    <filter id="color-overlay-1" filterUnits="userSpaceOnUse">
      <feFlood/>
      <feComposite operator="in" in2="SourceGraphic"/>
      <feBlend in2="SourceGraphic" result="solidFill"/>
    </filter>
  </defs>
  <path d="M24.214,4.393 L21.789,4.393 L20.679,24.255 C20.656,24.669 20.313,24.992 19.899,24.992 L5.109,24.992 C4.695,24.992 4.353,24.669 4.330,24.256 L3.202,4.393 L0.779,4.393 C0.347,4.393 -0.002,4.044 -0.002,3.613 C-0.002,3.181 0.347,2.832 0.779,2.832 L3.731,2.832 C3.768,2.832 3.801,2.848 3.837,2.853 C3.872,2.848 3.904,2.832 3.940,2.832 L8.040,2.832 L8.040,0.788 C8.040,0.357 8.389,0.007 8.821,0.007 L16.171,0.007 C16.603,0.007 16.952,0.357 16.952,0.788 L16.952,2.832 L21.050,2.832 C21.092,2.832 21.129,2.850 21.169,2.856 C21.211,2.850 21.248,2.832 21.291,2.832 L24.214,2.832 C24.646,2.832 24.995,3.181 24.995,3.613 C24.995,4.044 24.646,4.393 24.214,4.393 ZM15.390,1.569 L9.602,1.569 L9.602,2.832 L15.390,2.832 L15.390,1.569 ZM4.767,4.393 L5.848,23.431 L19.161,23.431 L20.224,4.393 L4.767,4.393 ZM16.336,21.967 C16.321,21.967 16.307,21.967 16.291,21.966 C15.860,21.941 15.532,21.572 15.556,21.142 L16.378,6.670 C16.402,6.239 16.777,5.916 17.202,5.935 C17.633,5.959 17.961,6.328 17.937,6.759 L17.115,21.230 C17.092,21.646 16.748,21.967 16.336,21.967 ZM12.496,21.967 C12.064,21.967 11.715,21.617 11.715,21.186 L11.715,6.714 C11.715,6.283 12.064,5.933 12.496,5.933 C12.928,5.933 13.277,6.283 13.277,6.714 L13.277,21.186 C13.277,21.617 12.928,21.967 12.496,21.967 ZM8.673,21.966 C8.658,21.967 8.643,21.967 8.628,21.967 C8.217,21.967 7.873,21.646 7.849,21.230 L7.027,6.759 C7.003,6.328 7.332,5.959 7.763,5.935 C8.183,5.915 8.562,6.239 8.587,6.670 L9.408,21.142 C9.433,21.572 9.104,21.941 8.673,21.966 Z" class="cls-1"/>
</svg>
