<?xml version="1.0" encoding="utf-8"?>
<!DOCTYPE svg PUBLIC "-//W3C//DTD SVG 1.1//EN" "http://www.w3.org/Graphics/SVG/1.1/DTD/svg11.dtd">
<svg version="1.1" id="图形" xmlns="http://www.w3.org/2000/svg" xmlns:xlink="http://www.w3.org/1999/xlink" x="0px" y="0px" width="25px" height="25px" viewBox="0 0 1024 1024" enable-background="new 0 0 1024 1024" xml:space="preserve">
  <path fill="#fff" d="M825.636698-147.417099 691.858856-147.417099c-73.882708 0-133.778866 59.886949-133.778866 133.772726L558.07999 120.140633c0 73.879638 59.896158 133.782959 133.778866 133.782959l133.777843 0c73.886801 0 133.782959-59.903322 133.782959-133.782959l0-133.785006C959.419657-87.529127 899.523499-147.417099 825.636698-147.417099zM919.286612 106.759881c0 59.104119-47.917336 107.025549-107.026572 107.025549L705.239608 213.785429c-59.109236 0-107.025549-47.921429-107.025549-107.025549l0-107.028619c0-59.106166 47.916313-107.016339 107.025549-107.016339l107.020432 0c59.109236 0 107.026572 47.910173 107.026572 107.016339L919.286612 106.759881zM825.636698 346.075385 691.858856 346.075385c-73.882708 0-133.778866 59.896158-133.778866 133.783982L558.07999 613.635163c0 73.888847 59.896158 133.781936 133.778866 133.781936l133.777843 0c73.886801 0 133.782959-59.894112 133.782959-133.781936l0-133.775796C959.419657 405.971543 899.523499 346.075385 825.636698 346.075385zM919.286612 600.783461c0 59.105143-47.917336 107.026572-107.026572 107.026572L705.239608 707.810033c-59.109236 0-107.025549-47.921429-107.025549-107.026572l0-107.027595c0-59.106166 47.916313-107.016339 107.025549-107.016339l107.020432 0c59.109236 0 107.026572 47.910173 107.026572 107.016339L919.286612 600.783461zM332.140121-147.417099 198.360232-147.417099c-73.884754 0-133.780913 59.886949-133.780913 133.772726L64.579319 120.140633c0 73.879638 59.896158 133.782959 133.780913 133.782959l133.779889 0c73.883731 0 133.777843-59.903322 133.777843-133.782959l0-133.785006C465.918987-87.529127 406.023852-147.417099 332.140121-147.417099zM420.600849 106.759881c0 59.104119-47.917336 107.025549-107.025549 107.025549L206.552821 213.785429c-59.108213 0-107.024525-47.921429-107.024525-107.025549l0-107.028619c0-59.106166 47.916313-107.016339 107.024525-107.016339L313.5753-107.285077c59.109236 0 107.025549 47.910173 107.025549 107.016339L420.600849 106.759881zM332.140121 346.075385 198.360232 346.075385c-73.884754 0-133.780913 59.896158-133.780913 133.783982L64.579319 613.635163c0 73.888847 59.896158 133.781936 133.780913 133.781936l133.779889 0c73.883731 0 133.777843-59.894112 133.777843-133.781936l0-133.775796C465.918987 405.971543 406.023852 346.075385 332.140121 346.075385zM420.600849 600.783461c0 59.105143-47.917336 107.026572-107.025549 107.026572L206.552821 707.810033c-59.108213 0-107.024525-47.921429-107.024525-107.026572l0-107.027595c0-59.106166 47.916313-107.016339 107.024525-107.016339L313.5753 386.739527c59.109236 0 107.025549 47.910173 107.025549 107.016339L420.600849 600.783461z" transform="translate(0, 812) scale(1, -1)"/>
</svg>
