<?xml version="1.0" encoding="utf-8"?>
<!DOCTYPE svg PUBLIC "-//W3C//DTD SVG 1.1//EN" "http://www.w3.org/Graphics/SVG/1.1/DTD/svg11.dtd">
<svg version="1.1" id="图形" xmlns="http://www.w3.org/2000/svg" xmlns:xlink="http://www.w3.org/1999/xlink" x="0px" y="0px" width="24px" height="24px" viewBox="0 0 1024 1024" enable-background="new 0 0 1024 1024" xml:space="preserve">
  <path fill="#fff" d="M147.868688 548.897743l727.632242 0c11.044996 0 19.976779 10.05296 19.976779 22.442128s-8.932806 22.398126-19.976779 22.398126L147.868688 593.737998c-11.022483 0-19.952218-10.008958-19.952218-22.398126S136.846205 548.897743 147.868688 548.897743zM875.50093 323.109324 147.868688 323.109324c-11.022483 0-19.952218-10.228969-19.952218-22.837124 0-12.589736 8.928712-22.794146 19.952218-22.794146l727.632242 0c11.044996 0 19.976779 10.206456 19.976779 22.794146C895.475662 312.880355 886.545926 323.109324 875.50093 323.109324zM875.50093 51.667122 147.868688 51.667122c-11.022483 0-19.952218-10.031471-19.952218-22.418592 0-12.389168 8.928712-22.443152 19.952218-22.443152l727.632242 0c11.044996 0 19.976779 10.05296 19.976779 22.443152C895.475662 41.635651 886.545926 51.667122 875.50093 51.667122z" transform="translate(0, 812) scale(1, -1)"/>
</svg>
